<mxfile host="65bd71144e">
    <diagram id="9GOSIzSt5ZUlFtkNZdQf" name="Page-1">
        <mxGraphModel dx="1168" dy="579" grid="1" gridSize="10" guides="1" tooltips="1" connect="1" arrows="1" fold="1" page="1" pageScale="1" pageWidth="850" pageHeight="1100" math="0" shadow="0">
            <root>
                <mxCell id="0"/>
                <mxCell id="1" parent="0"/>
                <mxCell id="242" value="" style="shape=mxgraph.mockup.containers.marginRect;rectMarginTop=10;strokeColor=#A4C2F4;strokeWidth=1;dashed=0;rounded=1;arcSize=5;recursiveResize=0;fillColor=none;" parent="1" vertex="1">
                    <mxGeometry x="580" y="360" width="160" height="100" as="geometry"/>
                </mxCell>
                <mxCell id="243" value="Infrastructure" style="shape=rect;strokeColor=none;fillColor=#a4c2f4;strokeWidth=1;dashed=0;rounded=1;arcSize=20;fontColor=#ffffff;fontSize=17;spacing=2;spacingTop=-2;align=left;autosize=1;spacingLeft=4;resizeWidth=0;resizeHeight=0;perimeter=none;" parent="242" vertex="1">
                    <mxGeometry x="5" width="130" height="30" as="geometry"/>
                </mxCell>
                <mxCell id="244" value="&lt;span style=&quot;color: rgb(255, 255, 255);&quot;&gt;DB Facade&lt;/span&gt;" style="rounded=1;whiteSpace=wrap;html=1;fillColor=#a4c2f4ff;strokeColor=none;" parent="242" vertex="1">
                    <mxGeometry x="20" y="40" width="120" height="40" as="geometry"/>
                </mxCell>
                <mxCell id="245" value="" style="shape=mxgraph.mockup.containers.marginRect;rectMarginTop=10;strokeColor=#FFB366;strokeWidth=1;dashed=0;rounded=1;arcSize=5;recursiveResize=0;fillColor=none;" parent="1" vertex="1">
                    <mxGeometry x="440" y="40" width="240" height="280" as="geometry"/>
                </mxCell>
                <mxCell id="246" value="Domain" style="shape=rect;strokeColor=none;fillColor=#FFB366;strokeWidth=1;dashed=0;rounded=1;arcSize=20;fontColor=#ffffff;fontSize=17;spacing=2;spacingTop=-2;align=left;autosize=1;spacingLeft=4;resizeWidth=0;resizeHeight=0;perimeter=none;" parent="245" vertex="1">
                    <mxGeometry x="5" width="80" height="30" as="geometry"/>
                </mxCell>
                <mxCell id="247" value="&lt;font color=&quot;#ffffff&quot;&gt;BankAccount&lt;/font&gt;" style="rounded=1;whiteSpace=wrap;html=1;fillColor=#FFB366;strokeColor=none;" parent="245" vertex="1">
                    <mxGeometry x="60" y="40" width="120" height="40" as="geometry"/>
                </mxCell>
                <mxCell id="248" style="edgeStyle=none;html=1;entryX=0.5;entryY=1;entryDx=0;entryDy=0;strokeColor=#808080;" parent="245" source="249" target="247" edge="1">
                    <mxGeometry relative="1" as="geometry"/>
                </mxCell>
                <mxCell id="274" style="edgeStyle=none;html=1;entryX=0.5;entryY=0;entryDx=0;entryDy=0;strokeColor=#808080;endArrow=classic;endFill=1;" parent="245" source="249" target="273" edge="1">
                    <mxGeometry relative="1" as="geometry"/>
                </mxCell>
                <mxCell id="249" value="&lt;font color=&quot;#ffffff&quot;&gt;BankAccountService&lt;br&gt;&lt;/font&gt;" style="rounded=1;whiteSpace=wrap;html=1;fillColor=#FFB366;strokeColor=none;" parent="245" vertex="1">
                    <mxGeometry x="60" y="120" width="120" height="40" as="geometry"/>
                </mxCell>
                <mxCell id="277" style="edgeStyle=none;html=1;entryX=1;entryY=0.5;entryDx=0;entryDy=0;strokeColor=#808080;endArrow=classic;endFill=1;" parent="245" source="273" target="247" edge="1">
                    <mxGeometry relative="1" as="geometry">
                        <Array as="points">
                            <mxPoint x="230" y="220"/>
                            <mxPoint x="230" y="60"/>
                        </Array>
                    </mxGeometry>
                </mxCell>
                <mxCell id="273" value="&lt;span style=&quot;color: rgb(255, 255, 255);&quot;&gt;BankAccount&lt;/span&gt;&lt;font color=&quot;#ffffff&quot;&gt;RepositoryInterface&lt;/font&gt;&lt;font color=&quot;#ffffff&quot;&gt;&lt;br&gt;&lt;/font&gt;" style="rounded=1;whiteSpace=wrap;html=1;fillColor=#FFB366;strokeColor=none;" parent="245" vertex="1">
                    <mxGeometry x="20.939999999999998" y="200" width="198.12" height="40" as="geometry"/>
                </mxCell>
                <mxCell id="250" value="" style="shape=mxgraph.mockup.containers.marginRect;rectMarginTop=10;strokeColor=#93C47D;strokeWidth=1;dashed=0;rounded=1;arcSize=5;recursiveResize=0;fillColor=none;" parent="1" vertex="1">
                    <mxGeometry x="40" y="40" width="160" height="280" as="geometry"/>
                </mxCell>
                <mxCell id="251" value="User Interface" style="shape=rect;strokeColor=none;fillColor=#93c47d;strokeWidth=1;dashed=0;rounded=1;arcSize=20;fontColor=#ffffff;fontSize=17;spacing=2;spacingTop=-2;align=left;autosize=1;spacingLeft=4;resizeWidth=0;resizeHeight=0;perimeter=none;" parent="250" vertex="1">
                    <mxGeometry x="5" width="130" height="30" as="geometry"/>
                </mxCell>
                <mxCell id="252" value="&lt;span style=&quot;color: rgb(255, 255, 255);&quot;&gt;Deposit&lt;/span&gt;&lt;span style=&quot;color: rgb(255, 255, 255);&quot;&gt;Dto&lt;/span&gt;" style="rounded=1;whiteSpace=wrap;html=1;fillColor=#93c47dff;strokeColor=none;" parent="250" vertex="1">
                    <mxGeometry x="20" y="200" width="120" height="40" as="geometry"/>
                </mxCell>
                <mxCell id="253" value="&lt;span style=&quot;color: rgb(255, 255, 255);&quot;&gt;Deposit&lt;/span&gt;&lt;font color=&quot;#ffffff&quot;&gt;Controller&lt;/font&gt;" style="rounded=1;whiteSpace=wrap;html=1;fillColor=#93c47dff;strokeColor=none;" parent="250" vertex="1">
                    <mxGeometry x="20" y="40" width="120" height="40" as="geometry"/>
                </mxCell>
                <mxCell id="254" style="edgeStyle=none;jumpSize=6;html=1;strokeWidth=1;strokeColor=#808080;" parent="250" source="253" target="252" edge="1">
                    <mxGeometry relative="1" as="geometry"/>
                </mxCell>
                <mxCell id="255" value="" style="shape=mxgraph.mockup.containers.marginRect;rectMarginTop=10;strokeColor=#EA9999;strokeWidth=1;dashed=0;rounded=1;arcSize=5;recursiveResize=0;fillColor=none;" parent="1" vertex="1">
                    <mxGeometry x="240" y="40" width="160" height="280" as="geometry"/>
                </mxCell>
                <mxCell id="256" value="Application" style="shape=rect;strokeColor=none;fillColor=#ea9999;strokeWidth=1;dashed=0;rounded=1;arcSize=20;fontColor=#ffffff;fontSize=17;spacing=2;spacingTop=-2;align=left;autosize=1;spacingLeft=4;resizeWidth=0;resizeHeight=0;perimeter=none;" parent="255" vertex="1">
                    <mxGeometry x="5" width="110" height="30" as="geometry"/>
                </mxCell>
                <mxCell id="257" value="&lt;span style=&quot;color: rgb(255, 255, 255);&quot;&gt;Deposit&lt;/span&gt;&lt;font color=&quot;#ffffff&quot;&gt;Request&lt;/font&gt;" style="rounded=1;whiteSpace=wrap;html=1;fillColor=#ea9999ff;strokeColor=none;" parent="255" vertex="1">
                    <mxGeometry x="20" y="40" width="120" height="40" as="geometry"/>
                </mxCell>
                <mxCell id="258" value="&lt;span style=&quot;color: rgb(255, 255, 255);&quot;&gt;Deposit&lt;/span&gt;&lt;font color=&quot;#ffffff&quot;&gt;Response&lt;/font&gt;" style="rounded=1;whiteSpace=wrap;html=1;fillColor=#ea9999ff;strokeColor=none;" parent="255" vertex="1">
                    <mxGeometry x="20" y="200" width="120" height="40" as="geometry"/>
                </mxCell>
                <mxCell id="259" style="edgeStyle=none;html=1;entryX=0.5;entryY=1;entryDx=0;entryDy=0;strokeColor=#808080;" parent="255" source="261" target="257" edge="1">
                    <mxGeometry relative="1" as="geometry"/>
                </mxCell>
                <mxCell id="260" style="edgeStyle=none;html=1;entryX=0.5;entryY=0;entryDx=0;entryDy=0;strokeColor=#808080;" parent="255" source="261" target="258" edge="1">
                    <mxGeometry relative="1" as="geometry"/>
                </mxCell>
                <mxCell id="261" value="&lt;span style=&quot;color: rgb(255, 255, 255);&quot;&gt;Deposit&lt;/span&gt;&lt;font color=&quot;#ffffff&quot;&gt;Interactor&lt;/font&gt;" style="rounded=1;whiteSpace=wrap;html=1;fillColor=#ea9999ff;strokeColor=none;" parent="255" vertex="1">
                    <mxGeometry x="20" y="120" width="120" height="40" as="geometry"/>
                </mxCell>
                <mxCell id="262" style="edgeStyle=none;html=1;strokeColor=#808080;" parent="1" source="261" target="249" edge="1">
                    <mxGeometry relative="1" as="geometry"/>
                </mxCell>
                <mxCell id="263" style="edgeStyle=none;html=1;entryX=0;entryY=0.5;entryDx=0;entryDy=0;strokeColor=#808080;" parent="1" source="252" target="258" edge="1">
                    <mxGeometry relative="1" as="geometry"/>
                </mxCell>
                <mxCell id="264" style="edgeStyle=none;html=1;entryX=0;entryY=0.5;entryDx=0;entryDy=0;strokeColor=#808080;" parent="1" source="261" target="247" edge="1">
                    <mxGeometry relative="1" as="geometry">
                        <Array as="points">
                            <mxPoint x="420" y="180"/>
                            <mxPoint x="420" y="100"/>
                        </Array>
                    </mxGeometry>
                </mxCell>
                <mxCell id="265" style="edgeStyle=none;html=1;strokeColor=#808080;" parent="1" source="253" target="257" edge="1">
                    <mxGeometry relative="1" as="geometry"/>
                </mxCell>
                <mxCell id="266" style="edgeStyle=none;html=1;entryX=0;entryY=0.5;entryDx=0;entryDy=0;strokeColor=#808080;" parent="1" source="253" target="261" edge="1">
                    <mxGeometry relative="1" as="geometry">
                        <Array as="points">
                            <mxPoint x="220" y="100"/>
                            <mxPoint x="220" y="180"/>
                        </Array>
                    </mxGeometry>
                </mxCell>
                <mxCell id="267" value="" style="shape=mxgraph.mockup.containers.marginRect;rectMarginTop=10;strokeColor=#A4C2F4;strokeWidth=1;dashed=0;rounded=1;arcSize=5;recursiveResize=0;fillColor=none;" parent="1" vertex="1">
                    <mxGeometry x="240" y="360" width="300" height="100" as="geometry"/>
                </mxCell>
                <mxCell id="268" value="Infrastructure" style="shape=rect;strokeColor=none;fillColor=#a4c2f4;strokeWidth=1;dashed=0;rounded=1;arcSize=20;fontColor=#ffffff;fontSize=17;spacing=2;spacingTop=-2;align=left;autosize=1;spacingLeft=4;resizeWidth=0;resizeHeight=0;perimeter=none;" parent="267" vertex="1">
                    <mxGeometry x="5" width="130" height="30" as="geometry"/>
                </mxCell>
                <mxCell id="269" value="&lt;span style=&quot;color: rgb(255, 255, 255);&quot;&gt;QueryBuilderBankAccountRepository&lt;/span&gt;" style="rounded=1;whiteSpace=wrap;html=1;fillColor=#a4c2f4ff;strokeColor=none;" parent="267" vertex="1">
                    <mxGeometry x="60" y="40" width="220" height="40" as="geometry"/>
                </mxCell>
                <mxCell id="270" style="edgeStyle=none;html=1;strokeColor=#808080;" parent="1" source="269" target="244" edge="1">
                    <mxGeometry relative="1" as="geometry"/>
                </mxCell>
                <mxCell id="275" style="edgeStyle=none;html=1;entryX=0;entryY=0.5;entryDx=0;entryDy=0;strokeColor=#808080;endArrow=classic;endFill=1;" parent="1" source="261" target="273" edge="1">
                    <mxGeometry relative="1" as="geometry">
                        <Array as="points">
                            <mxPoint x="420" y="180"/>
                            <mxPoint x="420" y="260"/>
                        </Array>
                    </mxGeometry>
                </mxCell>
                <mxCell id="276" style="edgeStyle=none;html=1;entryX=0.5;entryY=1;entryDx=0;entryDy=0;strokeColor=#808080;endArrow=block;endFill=0;" parent="1" source="269" target="273" edge="1">
                    <mxGeometry relative="1" as="geometry">
                        <Array as="points">
                            <mxPoint x="410" y="340"/>
                            <mxPoint x="560" y="340"/>
                        </Array>
                    </mxGeometry>
                </mxCell>
                <mxCell id="287" style="edgeStyle=none;html=1;entryX=0.237;entryY=0;entryDx=0;entryDy=0;entryPerimeter=0;strokeColor=#808080;endArrow=blockThin;endFill=1;" edge="1" parent="1" source="278" target="279">
                    <mxGeometry relative="1" as="geometry"/>
                </mxCell>
                <mxCell id="278" value="&lt;font color=&quot;#ffffff&quot;&gt;User Interface&lt;/font&gt;" style="rounded=1;whiteSpace=wrap;html=1;fillColor=#93c47dff;strokeColor=none;glass=0;shadow=0;" vertex="1" parent="1">
                    <mxGeometry x="720" y="40" width="90" height="40" as="geometry"/>
                </mxCell>
                <mxCell id="286" style="edgeStyle=none;html=1;entryX=0.5;entryY=0;entryDx=0;entryDy=0;strokeColor=#808080;endArrow=blockThin;endFill=1;" edge="1" parent="1" source="279" target="280">
                    <mxGeometry relative="1" as="geometry"/>
                </mxCell>
                <mxCell id="279" value="&lt;font color=&quot;#ffffff&quot;&gt;Application&lt;br&gt;&lt;/font&gt;" style="rounded=1;whiteSpace=wrap;html=1;fillColor=#ea9999ff;strokeColor=none;glass=0;shadow=0;" vertex="1" parent="1">
                    <mxGeometry x="720" y="100" width="190" height="40" as="geometry"/>
                </mxCell>
                <mxCell id="280" value="&lt;font color=&quot;#ffffff&quot;&gt;Domain&lt;/font&gt;" style="rounded=1;whiteSpace=wrap;html=1;fillColor=#FFB366;strokeColor=none;glass=0;shadow=0;" vertex="1" parent="1">
                    <mxGeometry x="720" y="160" width="190" height="40" as="geometry"/>
                </mxCell>
                <mxCell id="284" style="edgeStyle=none;html=1;entryX=1;entryY=0.5;entryDx=0;entryDy=0;endArrow=block;endFill=0;strokeColor=#808080;" edge="1" parent="1" source="281" target="280">
                    <mxGeometry relative="1" as="geometry">
                        <Array as="points">
                            <mxPoint x="930" y="60"/>
                            <mxPoint x="930" y="180"/>
                        </Array>
                    </mxGeometry>
                </mxCell>
                <mxCell id="281" value="&lt;font color=&quot;#ffffff&quot;&gt;Infrastructure&lt;/font&gt;" style="rounded=1;whiteSpace=wrap;html=1;fillColor=#a4c2f4ff;strokeColor=none;" vertex="1" parent="1">
                    <mxGeometry x="820" y="40" width="90" height="40" as="geometry"/>
                </mxCell>
            </root>
        </mxGraphModel>
    </diagram>
</mxfile>
